<?xml version="1.0" standalone="no"?>
<!DOCTYPE svg PUBLIC "-//W3C//DTD SVG 20010904//EN"
 "http://www.w3.org/TR/2001/REC-SVG-20010904/DTD/svg10.dtd">
<svg version="1.0" xmlns="http://www.w3.org/2000/svg"
 width="720.000000pt" height="720.000000pt" viewBox="0 0 720.000000 720.000000"
 preserveAspectRatio="xMidYMid meet">
<metadata>
Created by potrace 1.11, written by Peter Selinger 2001-2013
</metadata>
<g transform="translate(0.000000,720.000000) scale(0.100000,-0.100000)"
fill="#000000" stroke="none">
<path d="M3396 7032 c-2 -4 -1 -26 4 -48 13 -52 13 -50 -11 -73 l-22 -20 23
-83 c12 -46 26 -99 30 -118 10 -38 16 -44 110 -101 36 -22 86 -56 113 -75 51
-39 77 -39 77 -1 0 13 16 89 36 168 20 79 40 159 44 178 7 29 5 37 -17 57 -19
18 -24 30 -20 51 15 75 33 68 -175 71 -103 1 -189 -1 -192 -6z"/>
<path d="M3110 7009 c-25 -5 -74 -14 -110 -19 -82 -14 -153 -31 -163 -40 -4
-3 0 -29 9 -56 9 -27 18 -54 20 -60 1 -6 26 -14 56 -18 80 -9 245 -53 323 -85
63 -26 78 -31 96 -31 17 0 19 4 13 23 -4 12 -15 54 -24 92 -16 69 -17 70 -52
73 -34 3 -35 5 -50 65 -13 58 -16 62 -44 64 -16 1 -49 -3 -74 -8z"/>
<path d="M3951 6998 c-5 -13 -12 -37 -15 -55 -8 -34 -21 -49 -49 -54 -21 -4
-40 -51 -51 -121 -3 -24 -23 -110 -43 -191 l-36 -148 70 -72 c76 -79 132 -146
182 -219 17 -27 36 -48 42 -48 6 0 17 17 25 38 16 37 35 80 93 204 17 37 31
71 31 76 0 5 6 22 14 38 8 16 24 52 36 79 12 28 33 74 46 103 13 29 24 57 24
62 0 5 8 24 19 43 28 51 35 91 16 107 -19 16 -19 30 0 66 27 52 30 50 -100 74
-27 5 -88 16 -135 24 -122 23 -158 21 -169 -6z"/>
<path d="M4538 6883 c-42 -82 -51 -93 -85 -93 -16 0 -27 -10 -36 -32 -25 -57
-58 -132 -78 -171 -10 -22 -19 -43 -19 -48 0 -5 -15 -42 -34 -82 -49 -105 -72
-157 -96 -218 -20 -50 -53 -124 -85 -193 -7 -16 -10 -36 -6 -45 4 -9 28 -59
54 -112 26 -53 47 -105 47 -116 0 -10 4 -23 8 -28 5 -6 14 -30 21 -55 7 -25
17 -54 21 -65 10 -23 36 -159 50 -260 17 -120 10 -314 -16 -472 -4 -28 -3 -43
4 -43 6 0 64 40 129 89 l118 88 13 59 c13 57 31 118 67 234 19 62 23 76 59
215 15 55 38 137 51 183 45 147 73 246 78 272 3 14 10 41 16 60 5 19 19 67 30
105 11 39 31 108 44 155 13 47 37 129 51 182 l27 98 -27 23 -27 23 21 59 c12
32 19 62 16 67 -8 13 -122 63 -179 78 -16 5 -70 22 -119 39 -49 17 -93 31 -97
31 -4 0 -14 -12 -21 -27z"/>
<path d="M2586 6892 c-3 -5 -30 -15 -61 -22 -51 -12 -73 -28 -42 -31 20 -2
182 3 185 6 1 1 -2 14 -7 29 -8 20 -17 26 -40 26 -16 0 -32 -4 -35 -8z"/>
<path d="M2448 6765 c-188 -26 -345 -74 -500 -154 -368 -189 -741 -501 -1050
-879 -32 -38 -58 -73 -58 -77 0 -3 -11 -21 -25 -39 -20 -26 -22 -35 -13 -43
27 -21 90 -44 145 -54 65 -13 262 -6 308 10 17 5 80 27 140 47 61 20 130 48
155 62 25 14 55 31 67 37 50 27 148 104 216 170 72 70 99 102 263 310 172 218
362 383 501 435 174 66 360 62 528 -10 106 -46 255 -172 255 -217 l0 -25 -67
8 c-115 15 -233 11 -273 -9 -90 -46 -239 -291 -240 -393 0 -90 78 -227 167
-293 30 -22 60 -41 65 -41 6 0 24 -6 41 -14 60 -27 112 -36 217 -36 128 0 210
15 415 77 11 3 63 28 115 55 113 59 255 187 244 222 -12 36 -152 240 -218 316
-140 161 -301 282 -516 387 -175 85 -297 120 -510 149 -128 17 -243 16 -372
-1z"/>
<path d="M5115 6660 c-8 -16 -15 -36 -15 -44 0 -9 -16 -24 -37 -33 -34 -17
-38 -23 -65 -118 -61 -212 -70 -241 -78 -280 -5 -22 -19 -71 -31 -110 -29 -96
-56 -192 -89 -310 -15 -55 -29 -107 -32 -115 -5 -13 -22 -70 -68 -235 -5 -16
-18 -66 -30 -110 -11 -44 -26 -96 -31 -115 -6 -19 -13 -50 -16 -68 l-5 -34 73
52 c41 29 85 63 99 75 14 12 31 24 37 26 7 2 42 27 78 54 72 55 55 25 307 545
39 80 106 217 149 305 44 88 79 166 79 174 0 8 -9 24 -19 35 -19 21 -19 22 10
81 16 33 29 61 29 62 0 5 -93 65 -141 91 -30 16 -84 45 -121 65 l-68 37 -15
-30z"/>
<path d="M5584 6347 c-17 -33 -27 -43 -51 -45 -34 -3 -25 12 -229 -407 -203
-420 -216 -447 -212 -451 3 -2 23 9 46 26 23 16 44 30 47 30 3 0 31 20 63 45
74 58 218 164 333 245 51 36 115 83 143 105 28 23 72 55 98 73 44 31 46 33 41
72 -3 22 -2 40 3 40 5 0 22 11 39 24 l30 24 -20 22 c-50 55 -283 240 -303 240
-4 0 -17 -20 -28 -43z"/>
<path d="M2575 6228 c-36 -20 -161 -126 -220 -185 -31 -32 -91 -102 -133 -157
-43 -54 -103 -131 -135 -169 -32 -39 -61 -76 -65 -82 -13 -20 -166 -155 -176
-155 -5 0 -19 -8 -30 -18 -24 -22 -164 -102 -177 -102 -4 0 -32 -11 -61 -24
-306 -140 -688 -160 -895 -46 -39 22 -59 28 -68 20 -28 -23 -255 -507 -255
-544 0 -8 -12 -45 -26 -82 -14 -38 -32 -89 -39 -114 -49 -175 -90 -369 -84
-389 7 -20 71 38 161 145 89 106 87 104 194 245 153 202 289 337 404 398 70
37 318 91 415 91 52 0 157 -38 237 -84 180 -105 238 -152 238 -193 0 -24 -2
-25 -42 -19 -146 19 -215 19 -286 -3 -60 -18 -77 -29 -118 -74 -50 -55 -67
-91 -110 -231 -61 -201 -3 -326 189 -411 83 -36 228 -65 325 -65 76 1 118 7
242 37 52 13 238 127 344 210 86 67 262 246 319 323 26 36 56 74 65 85 9 11
34 43 56 70 22 28 86 96 142 152 199 198 351 266 585 262 135 -2 192 -18 314
-87 127 -72 182 -113 196 -144 24 -58 -6 -69 -125 -47 -134 25 -303 -51 -357
-161 -38 -75 -55 -131 -69 -222 -22 -137 22 -242 134 -314 79 -51 107 -65 122
-62 23 5 136 141 201 241 58 89 97 164 148 282 72 170 121 464 109 657 -8 127
-57 389 -72 388 -4 -1 -38 -29 -76 -64 -108 -100 -257 -180 -456 -245 -259
-84 -424 -101 -578 -61 -42 12 -126 45 -187 75 -143 70 -193 118 -251 241 -76
161 -88 206 -88 329 -1 115 18 198 64 280 21 37 13 44 -25 23z"/>
<path d="M6004 5964 c-45 -31 -54 -34 -77 -23 -23 10 -31 7 -86 -35 -34 -25
-63 -46 -65 -46 -3 0 -42 -28 -88 -62 -98 -74 -156 -116 -242 -178 -35 -25
-92 -67 -127 -93 -54 -41 -164 -120 -270 -197 -16 -11 -50 -68 -89 -147 -34
-70 -80 -162 -101 -205 -21 -42 -39 -81 -39 -87 0 -17 26 -13 67 11 56 31 90
48 278 138 94 45 188 91 210 102 22 12 58 29 80 40 22 10 49 24 60 30 26 15
13 8 300 147 428 207 419 203 425 242 4 25 13 38 35 49 76 39 74 32 25 95 -68
89 -221 255 -234 254 -6 0 -34 -16 -62 -35z"/>
<path d="M6385 5505 c-59 -28 -78 -30 -95 -10 -20 24 39 50 -610 -267 -146
-71 -300 -148 -344 -170 -94 -47 -81 -41 -236 -116 -237 -115 -293 -143 -321
-162 -15 -11 -43 -54 -64 -98 -21 -42 -69 -142 -107 -222 -39 -80 -88 -180
-109 -222 -22 -42 -35 -79 -30 -83 5 -3 85 -10 178 -15 214 -12 442 -28 513
-35 l55 -5 90 65 c50 37 108 78 130 92 22 15 67 47 100 72 34 25 68 51 77 56
18 11 153 107 282 200 46 33 141 101 211 150 70 50 164 116 209 148 44 32 116
82 158 110 77 52 77 52 71 90 -3 20 -2 37 3 37 5 0 31 19 57 43 l48 42 -38 75
c-21 41 -44 81 -51 88 -7 8 -20 28 -29 45 -28 56 -74 117 -86 117 -7 -1 -34
-12 -62 -25z"/>
<path d="M4828 5165 c-32 -25 -61 -45 -65 -45 -4 0 -27 -17 -52 -38 -25 -21
-65 -51 -88 -66 -45 -30 -46 -32 -74 -141 -9 -38 -22 -85 -28 -102 -5 -19 -6
-35 -1 -38 5 -3 52 15 104 40 l94 46 37 77 c21 42 62 127 91 187 30 61 54 113
54 118 0 14 -16 6 -72 -38z"/>
<path d="M6690 5005 c-39 -27 -62 -30 -89 -14 -15 10 -26 6 -67 -22 -27 -18
-62 -46 -79 -61 -16 -15 -34 -28 -39 -28 -8 0 -38 -21 -249 -175 -45 -33 -98
-70 -118 -81 -20 -12 -44 -28 -55 -37 -30 -25 -101 -77 -214 -157 -58 -40
-132 -94 -165 -118 -33 -24 -67 -47 -75 -50 -8 -3 -21 -11 -30 -18 -25 -22
-154 -115 -170 -124 -31 -18 9 -28 155 -39 339 -26 304 -27 375 6 61 29 80 37
178 79 20 9 60 27 87 39 106 49 166 75 170 75 2 0 51 23 110 50 59 28 109 50
113 50 7 0 104 45 182 84 37 19 44 28 45 52 0 26 8 33 67 64 38 19 68 40 68
47 0 13 -26 96 -40 128 -5 11 -12 31 -15 45 -4 14 -14 41 -22 60 -8 19 -19 44
-23 55 -17 44 -53 115 -59 114 -3 0 -22 -11 -41 -24z"/>
<path d="M4415 4863 c-44 -30 -90 -64 -102 -75 -12 -12 -32 -26 -44 -32 -22
-11 -73 -143 -67 -171 2 -10 29 -2 98 31 123 58 122 58 131 75 4 8 17 48 29
89 12 41 27 88 33 103 5 15 8 29 6 31 -2 2 -40 -21 -84 -51z"/>
<path d="M3305 4753 c-85 -46 -268 -228 -311 -309 -27 -51 -264 -335 -325
-389 -175 -156 -460 -293 -704 -340 -105 -20 -315 -20 -403 0 -383 88 -551
284 -552 646 0 119 19 201 71 296 17 31 29 57 27 59 -2 2 -34 -19 -70 -47 -74
-55 -250 -249 -403 -444 -95 -121 -288 -325 -308 -325 -5 0 -36 -18 -68 -40
-32 -22 -63 -40 -68 -40 -33 0 -46 -137 -35 -367 l7 -153 71 -39 c80 -44 194
-127 210 -153 19 -31 -3 -38 -82 -27 -40 6 -94 9 -120 7 l-47 -3 3 -35 c3 -36
34 -199 54 -280 14 -60 112 -373 136 -434 11 -27 25 -52 33 -56 34 -18 307 52
394 101 208 115 343 234 405 356 13 26 41 74 62 105 21 31 38 60 38 63 0 3 36
50 79 104 239 295 553 488 941 579 121 29 161 33 370 42 224 8 325 22 444 59
94 30 247 99 329 148 60 36 69 49 40 60 -19 7 -101 72 -141 112 -45 45 -100
136 -121 200 -23 70 -29 237 -12 295 5 17 15 51 22 76 7 25 28 75 46 112 43
89 43 91 -12 61z"/>
<path d="M4559 4679 l-75 -39 -24 -76 c-12 -41 -28 -101 -35 -132 -7 -31 -23
-88 -35 -127 -30 -99 -39 -133 -32 -139 13 -13 39 -4 50 17 6 12 47 99 92 192
45 94 102 209 126 258 53 103 49 106 -67 46z"/>
<path d="M4267 4536 c-129 -66 -117 -53 -203 -212 -27 -50 -32 -69 -27 -99 3
-20 11 -38 17 -40 6 -3 58 -8 116 -13 74 -7 108 -6 116 2 6 6 23 56 37 111 14
55 37 138 51 185 26 86 32 131 19 129 -5 -1 -61 -29 -126 -63z"/>
<path d="M6770 4423 c-8 -3 -31 -12 -50 -20 -19 -8 -51 -22 -70 -30 -19 -8
-73 -33 -120 -55 -47 -22 -94 -44 -105 -48 -35 -14 -98 -42 -181 -81 -45 -22
-85 -39 -90 -39 -7 0 -75 -31 -153 -68 -19 -10 -34 -21 -35 -27 -1 -6 46 -13
109 -17 133 -8 551 -35 692 -44 l102 -7 6 26 c8 30 26 36 94 29 51 -5 51 -4
51 24 -1 16 -16 103 -34 194 -25 126 -36 166 -48 168 -9 2 -37 -6 -62 -17 -54
-25 -51 -25 -73 -2 -10 10 -25 16 -33 14z"/>
<path d="M4230 4100 c19 -13 30 -13 30 0 0 6 -10 10 -22 10 -19 0 -20 -2 -8
-10z"/>
<path d="M4330 4084 c0 -9 5 -14 12 -12 18 6 21 28 4 28 -9 0 -16 -7 -16 -16z"/>
<path d="M4430 4086 c-7 -9 -10 -22 -7 -30 6 -15 23 -21 142 -50 33 -8 85 -21
115 -29 274 -77 255 -74 298 -42 21 15 61 43 89 62 29 20 50 39 48 43 -3 4
-47 11 -97 14 -354 26 -498 37 -534 41 -30 4 -44 2 -54 -9z"/>
<path d="M4160 4039 c0 -6 9 -22 20 -36 11 -14 20 -32 20 -39 0 -19 26 -18 34
2 15 38 6 62 -25 73 -40 14 -49 14 -49 0z"/>
<path d="M5199 4018 c-37 -23 -115 -79 -153 -110 l-21 -16 30 -12 c17 -7 62
-20 100 -31 39 -10 79 -21 91 -24 12 -4 40 2 67 14 26 12 67 30 92 41 25 11
47 20 50 20 2 0 42 17 87 39 46 21 91 41 101 45 28 9 20 25 -15 30 -18 3 -89
7 -158 11 -69 3 -150 8 -180 11 -46 4 -61 1 -91 -18z"/>
<path d="M3917 3968 c-2 -18 -13 -69 -22 -113 -35 -158 -18 -587 26 -629 7 -8
26 6 64 49 60 67 95 126 95 160 0 13 5 27 10 30 6 3 10 28 10 55 0 27 5 52 11
56 20 12 2 143 -31 230 -32 83 -112 192 -141 193 -11 1 -18 -10 -22 -31z"/>
<path d="M5770 3979 c-40 -21 -168 -79 -176 -79 -2 0 -37 -15 -77 -34 -40 -19
-85 -39 -100 -45 -51 -19 -30 -35 81 -63 59 -14 133 -33 165 -42 31 -9 83 -23
115 -32 31 -9 91 -24 132 -34 41 -10 100 -25 130 -33 30 -9 82 -23 115 -32 33
-9 119 -32 190 -50 125 -32 175 -46 315 -85 212 -60 223 -61 241 -29 9 17 17
20 42 15 100 -21 93 -23 101 29 8 60 8 322 0 363 -6 29 -8 30 -80 37 -69 6
-104 22 -104 45 0 14 -29 19 -185 30 -82 5 -303 21 -490 35 -187 14 -349 24
-360 24 -11 0 -36 -9 -55 -20z"/>
<path d="M4373 3978 c-9 -13 -36 -68 -67 -140 -9 -20 -16 -42 -16 -48 0 -12
182 -200 194 -200 3 0 48 29 99 66 50 36 122 85 158 109 36 24 71 51 78 59 8
9 20 16 27 16 8 0 14 7 14 15 0 14 -30 25 -121 44 -24 6 -77 19 -116 30 -230
66 -236 67 -250 49z"/>
<path d="M4878 3792 c-300 -211 -338 -240 -338 -256 0 -34 47 -27 154 23 36
17 95 45 130 61 35 17 67 30 70 30 3 0 43 18 88 39 46 21 105 49 132 61 35 16
45 25 37 33 -10 10 -174 57 -196 56 -5 0 -40 -22 -77 -47z"/>
<path d="M5270 3753 c-8 -3 -37 -16 -65 -28 -122 -55 -152 -68 -185 -82 -19
-8 -66 -30 -105 -48 -98 -46 -164 -75 -170 -75 -13 0 -115 -51 -121 -61 -3 -6
108 -124 258 -273 l264 -262 175 -13 c96 -6 244 -19 329 -27 173 -16 516 -45
1047 -90 71 -6 73 -5 83 20 7 18 17 26 34 26 16 0 32 11 46 30 28 39 91 177
101 220 4 19 14 60 23 90 8 30 14 56 11 58 -2 2 -32 13 -67 25 -55 19 -63 26
-66 50 -2 18 -9 27 -21 27 -10 0 -21 3 -25 7 -7 7 -88 29 -211 57 -33 8 -109
28 -170 45 -188 53 -248 69 -315 85 -36 8 -114 29 -175 46 -60 17 -177 48
-260 69 -82 22 -176 46 -207 55 -32 9 -82 22 -110 30 -29 8 -60 16 -68 19 -8
3 -22 3 -30 0z"/>
<path d="M4300 3651 c0 -22 58 -109 83 -125 13 -8 21 -7 34 7 16 16 14 20 -42
77 -64 64 -75 71 -75 41z"/>
<path d="M2495 3546 c-49 -7 -99 -16 -110 -19 -11 -3 -36 -8 -55 -11 -86 -13
-331 -110 -425 -169 -233 -145 -432 -340 -552 -542 -27 -45 -121 -243 -136
-285 -59 -170 -99 -403 -96 -562 2 -120 28 -305 59 -413 6 -22 15 -53 19 -70
26 -95 138 -325 200 -410 21 -27 50 -68 66 -90 53 -72 219 -230 301 -287 107
-74 402 -238 429 -238 2 0 37 -16 78 -35 69 -31 348 -129 442 -155 161 -43
445 -90 676 -111 117 -11 453 -8 465 3 7 7 -60 23 -206 48 -146 25 -380 81
-486 116 -41 13 -80 24 -86 24 -22 0 -195 125 -248 179 -73 75 -171 151 -245
190 -233 123 -304 200 -325 353 -31 218 92 319 249 204 64 -47 105 -94 138
-159 32 -63 113 -267 113 -284 0 -30 19 -9 29 32 12 49 17 327 6 345 -4 6 -10
35 -15 63 -4 29 -24 126 -45 217 -34 149 -38 178 -38 305 1 209 31 319 97 350
38 18 74 69 94 130 7 22 17 49 22 60 5 11 27 67 49 124 58 148 106 223 183
280 40 29 124 51 201 51 71 0 208 -26 255 -49 141 -67 162 -81 237 -156 79
-79 121 -148 178 -290 46 -116 65 -256 71 -530 5 -287 16 -360 60 -418 17 -23
39 -55 50 -71 10 -15 31 -42 48 -60 17 -17 44 -47 62 -66 17 -19 66 -61 108
-93 222 -170 639 -210 1208 -117 30 5 87 14 125 21 39 6 83 16 99 22 40 15
324 300 421 423 152 192 175 223 195 259 11 20 29 48 39 63 29 41 73 113 97
157 11 22 31 58 43 80 35 61 56 103 94 185 63 134 83 184 97 233 7 26 17 50
21 53 5 3 9 14 9 25 0 10 4 27 10 37 24 45 90 286 106 393 4 24 10 51 15 60 5
9 5 19 2 23 -4 3 -26 -34 -50 -83 -23 -49 -56 -110 -73 -134 -16 -25 -30 -48
-30 -51 0 -18 -144 -192 -224 -272 -240 -238 -494 -371 -866 -451 -112 -24
-446 -24 -560 0 -196 41 -289 71 -439 146 -162 80 -269 151 -392 262 -88 81
-207 216 -254 292 -97 155 -207 317 -236 348 -19 19 -52 55 -75 80 -122 132
-298 248 -546 358 -26 12 -53 21 -60 21 -7 0 -33 7 -58 16 -149 52 -449 75
-635 50z m23 -281 c88 -17 179 -53 229 -91 18 -14 50 -51 72 -82 62 -91 127
-149 218 -193 122 -59 128 -83 40 -165 -81 -76 -108 -94 -143 -94 -32 0 -115
39 -154 73 -31 27 -25 68 14 99 56 45 56 108 1 108 -39 0 -117 -63 -166 -133
-25 -37 -68 -86 -95 -109 -27 -24 -51 -45 -54 -48 -13 -15 -81 -40 -109 -40
-122 0 -309 166 -356 316 -15 50 -16 65 -6 103 29 110 123 215 223 251 66 24
176 26 286 5z m-488 -540 c60 -12 159 -66 214 -116 60 -55 77 -97 78 -194 0
-73 -20 -118 -62 -140 -62 -32 -290 -7 -360 39 -62 41 -108 95 -126 148 -16
48 -15 54 2 112 24 78 82 140 145 154 24 5 51 8 59 7 8 -2 31 -7 50 -10z m115
-515 c11 -4 40 -14 64 -21 53 -16 117 -73 127 -113 12 -49 -52 -143 -121 -176
-93 -45 -221 -18 -313 64 -98 89 -84 174 38 229 76 35 148 41 205 17z m150
-398 c64 -21 160 -115 169 -166 23 -123 -99 -245 -244 -246 -137 0 -250 199
-194 340 20 48 54 75 114 87 51 11 84 8 155 -15z"/>
<path d="M4284 3485 c-3 -20 -3 -39 1 -43 12 -12 44 36 38 58 -9 32 -32 23
-39 -15z"/>
<path d="M4446 3485 c-14 -11 -17 -18 -9 -26 12 -12 65 9 60 25 -6 17 -30 17
-51 1z"/>
<path d="M4512 3415 c-17 -8 -32 -19 -32 -26 0 -10 25 -48 127 -189 18 -25 58
-82 89 -128 78 -114 86 -119 197 -127 174 -13 181 -31 -86 234 -130 129 -242
238 -249 242 -7 4 -28 1 -46 -6z"/>
<path d="M4335 3335 c-38 -19 -75 -35 -81 -35 -6 0 -18 -8 -26 -17 -13 -16
-13 -33 -1 -138 7 -66 15 -125 17 -131 4 -10 160 -29 343 -41 99 -6 102 -5 97
15 -3 11 -13 29 -23 39 -9 10 -45 59 -81 108 -78 110 -170 235 -173 235 -1 0
-33 -16 -72 -35z"/>
<path d="M4128 3163 c-20 -22 -27 -40 -29 -79 -3 -63 4 -74 48 -74 l36 0 -7
82 c-4 46 -10 86 -15 91 -4 4 -19 -5 -33 -20z"/>
<path d="M3996 3045 c-6 -17 17 -31 34 -20 5 3 10 13 10 21 0 19 -36 18 -44
-1z"/>
<path d="M4090 2937 c0 -15 75 -41 90 -32 15 9 12 32 -6 39 -30 11 -84 7 -84
-7z"/>
<path d="M4257 2934 c-16 -16 -6 -44 21 -57 15 -8 56 -22 92 -32 134 -35 286
-77 318 -86 131 -37 176 -49 180 -44 6 5 -26 61 -43 75 -9 8 -25 30 -35 50
-31 61 -37 63 -233 76 -99 7 -206 15 -237 19 -30 4 -59 3 -63 -1z"/>
<path d="M4840 2877 c0 -9 5 -19 11 -22 5 -4 35 -45 65 -91 31 -46 57 -84 59
-84 7 0 108 -28 180 -50 39 -12 97 -28 130 -36 33 -8 68 -19 77 -25 22 -11 48
-12 48 0 0 5 -66 74 -146 154 -163 162 -138 150 -326 163 -85 5 -98 4 -98 -9z"/>
<path d="M4085 2850 c-7 -12 5 -35 68 -129 27 -40 53 -69 57 -65 5 5 3 47 -3
93 l-12 84 -45 13 c-54 16 -57 17 -65 4z"/>
<path d="M5220 2855 c0 -2 74 -78 165 -168 135 -134 172 -166 207 -176 24 -7
72 -21 108 -32 36 -10 133 -37 215 -60 83 -22 173 -47 200 -54 28 -8 92 -26
144 -40 l93 -26 52 41 c28 22 73 58 99 79 90 71 257 263 257 295 0 9 -1 16 -2
17 -10 2 -480 42 -698 59 -261 20 -332 26 -660 55 -190 17 -180 16 -180 10z"/>
<path d="M4266 2802 c-2 -4 2 -60 9 -125 16 -137 27 -159 112 -235 64 -56 200
-162 209 -162 3 0 32 -18 64 -40 32 -22 61 -40 64 -40 3 0 43 -17 88 -39 102
-48 185 -77 275 -97 86 -19 266 -44 273 -38 2 3 0 11 -5 19 -30 43 -129 184
-254 360 -144 205 -167 232 -198 238 -38 7 -139 33 -248 64 -49 13 -119 33
-155 43 -185 52 -228 62 -234 52z"/>
<path d="M5046 2592 c-2 -4 12 -30 33 -57 53 -70 184 -253 196 -273 6 -10 31
-44 56 -77 25 -33 53 -73 62 -90 32 -59 53 -75 95 -75 90 0 362 45 388 65 14
10 -8 35 -150 177 -197 198 -213 211 -291 231 -173 46 -285 77 -330 91 -59 19
-53 18 -59 8z"/>
<path d="M5700 2374 c57 -60 48 -52 167 -167 106 -103 101 -101 168 -72 134
58 186 82 210 101 20 15 20 15 1 30 -11 8 -29 14 -41 14 -12 0 -25 3 -29 7 -4
4 -34 13 -67 20 -33 6 -90 21 -127 32 -180 55 -250 74 -287 78 l-40 5 45 -48z"/>
<path d="M1002 2219 c-132 -77 -259 -132 -404 -174 -57 -17 -73 -36 -49 -60 5
-6 26 -41 46 -80 67 -125 223 -353 350 -511 80 -100 381 -406 419 -426 20 -11
20 -10 3 16 -171 260 -265 478 -304 706 -19 110 -25 409 -11 503 9 54 2 57
-50 26z"/>
</g>
</svg>
